# xmcd CD database file
#
# Track frame offsets:
#	150
#	16755
#	32800
#	51215
#
# Disc length: 901 seconds
#
# Revision: 1
# Processed by: cddbd v1.5.1PL0 Copyright (c) Steve Scherf et al.
# Submitted via: CDex 1.51
#
DISCID=27038304
DTITLE=三枝夕夏 IN db - 笑顔でいようよ
DYEAR=2004
DGENRE=JPop
TTITLE0=笑顔でいようよ
TTITLE1=そっとやさしい風に吹かれながら
TTITLE2=Pocket
TTITLE3=笑顔でいようよ 〜Instrumental〜
EXTD=YEAR: 2004
EXTT0=
EXTT1=
EXTT2=
EXTT3=
PLAYORDER=
